<svg id="Calque_1" data-name="Calque 1" xmlns="http://www.w3.org/2000/svg" viewBox="0 0 186.83 181.67"><defs><style>.cls-1{fill:none;stroke:#c59e5d;stroke-miterlimit:10;}.cls-2{fill:#c59e5d;}</style></defs><title>Plan de travail 1 copie</title><polyline class="cls-1" points="176.6 152.43 176.6 173.47 9.13 173.47 9.13 6 176.6 6 176.6 26.24"/><path class="cls-2" d="M64.8,76.45c-.16-2.21-.55-3.69-.32-5,.77-4.45,1.32-9,2.76-13.24C71.42,45.88,79,36.51,91.74,32.32c21.22-7,46.35,3.88,56.37,24.19.51,1,1,2.05,1.57,3.07l.68-.31a14.06,14.06,0,0,0-.67-1.92c-8.4-16.68-22-26.3-40.49-27.87C85.08,27.44,64,42.38,57,65.67c-.22.73-.42,1.88,0,2.32C59.36,70.76,61.92,73.38,64.8,76.45Zm41,2.68V80c.84.06,1.68.17,2.52.17,6.9,0,13.82-.19,20.72.07s13,2.57,16.08,9.44a18.3,18.3,0,0,1-2.38,19.57,45.5,45.5,0,0,1-26.68,16.61c-1.08.24-2.17.42-3.44.66,1.89,1.8,9.72-.49,17-4.69,15.79-9.07,25.65-26.82,24.18-42.71Z"/><path class="cls-2" d="M64.8,76.45C61.92,73.38,59.36,70.76,57,68c-.38-.44-.18-1.59,0-2.32,7-23.29,28.07-38.23,52.19-36.19,18.51,1.57,32.09,11.19,40.49,27.87a14.06,14.06,0,0,1,.67,1.92l-.68.31c-.52-1-1.06-2-1.57-3.07C138.09,36.2,113,25.34,91.74,32.32,79,36.51,71.42,45.88,67.24,58.16c-1.44,4.24-2,8.79-2.76,13.24C64.25,72.76,64.64,74.24,64.8,76.45Z"/><path class="cls-2" d="M105.83,79.13h48c1.47,15.89-8.39,33.64-24.18,42.71-7.32,4.2-15.15,6.49-17,4.69,1.27-.24,2.36-.42,3.44-.66a45.5,45.5,0,0,0,26.68-16.61,18.3,18.3,0,0,0,2.38-19.57c-3.05-6.87-9.14-9.18-16.08-9.44s-13.82,0-20.72-.07c-.84,0-1.68-.11-2.52-.17Z"/><path class="cls-2" d="M38.67,82.59,54,68.23l6.07,6.49A5.55,5.55,0,0,1,61.4,77a6.91,6.91,0,0,1,.24,2.47A7,7,0,0,1,61,81.81a6.64,6.64,0,0,1-1.44,2A7.06,7.06,0,0,1,57.68,85a6.93,6.93,0,0,1-2,.6,5.82,5.82,0,0,1-2-.1,5.4,5.4,0,0,1-1.89-.87L49.31,94l-1.6-1.71L50,83.35l-4.25-4.54L40.09,84.1Zm8.43-5,4.69,5a3.46,3.46,0,0,0,1.44,1,3.93,3.93,0,0,0,1.67.21,5.17,5.17,0,0,0,1.69-.45,5.37,5.37,0,0,0,1.52-1,5.06,5.06,0,0,0,1.1-1.5,5.12,5.12,0,0,0,.49-1.71,4.43,4.43,0,0,0-.17-1.7,3.72,3.72,0,0,0-.84-1.47L54.11,71Z"/><path class="cls-2" d="M57.55,103a8.9,8.9,0,0,1-2.08-3.55,10.07,10.07,0,0,1-.38-3.92,10.86,10.86,0,0,1,1.13-3.81,11.31,11.31,0,0,1,2.39-3.21,11,11,0,0,1,3.46-2.2,11.2,11.2,0,0,1,3.92-.8,10.22,10.22,0,0,1,3.86.69,9.14,9.14,0,0,1,5.37,5.83A10.16,10.16,0,0,1,75.56,96a11.27,11.27,0,0,1-1.14,3.8,11.07,11.07,0,0,1-5.82,5.38,11.14,11.14,0,0,1-3.9.8,10.19,10.19,0,0,1-3.84-.69A8.9,8.9,0,0,1,57.55,103ZM60,90a9.84,9.84,0,0,0-2,2.67,9,9,0,0,0-1,3.09,8,8,0,0,0,.25,3.13,7.29,7.29,0,0,0,4.4,4.65,7.75,7.75,0,0,0,3.15.42,9.3,9.3,0,0,0,3.12-.78,9.8,9.8,0,0,0,2.72-1.79,9.48,9.48,0,0,0,2-2.67,9.11,9.11,0,0,0,.95-3.1,8,8,0,0,0-.26-3.12A7.24,7.24,0,0,0,69,87.91a7.53,7.53,0,0,0-3.14-.43,9.07,9.07,0,0,0-3.12.78A9.57,9.57,0,0,0,60,90Z"/><path class="cls-2" d="M81.55,97.67,78,110.42l13-2.66,1.54,1.65-15.22,3.06-5.72,5.34-1.41-1.51,5.76-5.38L80,96Z"/><path class="cls-2" d="M97.42,114.67l1.2,1.28-9.41,20.74-1.5-1.6,3-6.48-6.45-6.91-6.65,2.52L76,122.6Zm-5.89,12.48L96.23,117l-10.53,4Z"/><path class="cls-2" d="M91.27,138.9l15.37-14.36,1.42,1.52-14,13.1,8.29,8.88L101,149.29Z"/><line class="cls-1" x1="133.93" y1="150.17" x2="31.72" y2="42.53"/></svg>