<svg id="Calque_1" data-name="Calque 1" xmlns="http://www.w3.org/2000/svg" viewBox="0 0 71.83 71.17"><defs><style>.cls-1{fill:none;stroke:#c59e5d;stroke-miterlimit:10;}.cls-2{fill:#c59e5d;}</style></defs><title>Plan de travail 1</title><polyline class="cls-1" points="70.5 61.66 70.5 70.36 1.24 70.36 1.24 1.1 70.5 1.1 70.5 9.47"/><path class="cls-2" d="M24.26,30.24a9.74,9.74,0,0,1-.13-2.09,36,36,0,0,1,1.14-5.48C27,17.59,30.14,13.72,35.4,12c8.78-2.89,19.17,1.6,23.31,10l.65,1.27.29-.13a7.41,7.41,0,0,0-.28-.79c-3.48-6.9-9.09-10.88-16.75-11.53A20.57,20.57,0,0,0,21,25.78c-.1.3-.18.78,0,1C22,27.89,23.07,29,24.26,30.24Zm17,1.11v.36c.34,0,.69.07,1,.07,2.86,0,5.72-.08,8.57,0s5.39,1.07,6.65,3.91a7.58,7.58,0,0,1-1,8.09,18.85,18.85,0,0,1-11,6.87c-.44.1-.9.17-1.42.27.78.74,4-.2,7.05-1.94,6.53-3.75,10.6-11.09,10-17.66Z"/><path class="cls-2" d="M24.26,30.24C23.07,29,22,27.89,21,26.74c-.16-.18-.08-.66,0-1a20.57,20.57,0,0,1,21.58-15c7.66.65,13.27,4.63,16.75,11.53a7.41,7.41,0,0,1,.28.79l-.29.13L58.71,22C54.57,13.59,44.18,9.1,35.4,12c-5.26,1.73-8.4,5.6-10.13,10.68a36,36,0,0,0-1.14,5.48A9.74,9.74,0,0,0,24.26,30.24Z"/><path class="cls-2" d="M41.23,31.35H61.1c.6,6.57-3.47,13.91-10,17.66-3,1.74-6.27,2.68-7.05,1.94.52-.1,1-.17,1.42-.27a18.85,18.85,0,0,0,11-6.87,7.58,7.58,0,0,0,1-8.09c-1.26-2.84-3.78-3.8-6.65-3.91s-5.71,0-8.57,0c-.35,0-.7,0-1-.07Z"/><path class="cls-2" d="M13.45,32.78l6.36-5.94,2.51,2.69a2.2,2.2,0,0,1,.53.92,2.69,2.69,0,0,1,.1,1,2.73,2.73,0,0,1-.28,1,2.82,2.82,0,0,1-.59.81,2.94,2.94,0,0,1-.76.52,3,3,0,0,1-.84.25,2.42,2.42,0,0,1-.85,0,2.31,2.31,0,0,1-.78-.36l-1,3.85-.66-.71.95-3.69-1.76-1.88L14,33.41Zm3.49-2.08,1.94,2.07a1.44,1.44,0,0,0,.59.4,1.82,1.82,0,0,0,.69.08,2.19,2.19,0,0,0,.7-.18,2.43,2.43,0,0,0,.63-.43A2,2,0,0,0,22,32a2.11,2.11,0,0,0,.2-.71,1.89,1.89,0,0,0-.07-.71,1.51,1.51,0,0,0-.35-.6l-1.89-2Z"/><path class="cls-2" d="M21.26,41.23a3.68,3.68,0,0,1-.86-1.47,4.27,4.27,0,0,1-.16-1.62,4.72,4.72,0,0,1,.47-1.58,4.66,4.66,0,0,1,2.42-2.23A4.59,4.59,0,0,1,24.75,34a4,4,0,0,1,1.6.28,3.71,3.71,0,0,1,1.37.93,3.76,3.76,0,0,1,.85,1.48,4.3,4.3,0,0,1,.14,1.63,4.6,4.6,0,0,1-.47,1.57,4.73,4.73,0,0,1-1,1.32,4.6,4.6,0,0,1-3,1.24,4.18,4.18,0,0,1-1.59-.29A3.71,3.71,0,0,1,21.26,41.23Zm1-5.37a4,4,0,0,0-.84,1.1,3.59,3.59,0,0,0-.4,1.28,3.18,3.18,0,0,0,.1,1.3,2.82,2.82,0,0,0,.68,1.16,2.76,2.76,0,0,0,1.14.76,3.22,3.22,0,0,0,1.3.17,3.94,3.94,0,0,0,1.29-.32,4.09,4.09,0,0,0,1.13-.74,3.94,3.94,0,0,0,.83-1.11,3.73,3.73,0,0,0,.39-1.27,3.36,3.36,0,0,0-.11-1.3,2.85,2.85,0,0,0-.66-1.15A2.89,2.89,0,0,0,26,35a3.23,3.23,0,0,0-1.3-.18,3.94,3.94,0,0,0-1.29.32A4.12,4.12,0,0,0,22.29,35.86Z"/><path class="cls-2" d="M31.19,39l-1.48,5.27,5.37-1.1.64.68-6.29,1.27-2.37,2.21-.58-.63,2.38-2.23,1.68-6.16Z"/><path class="cls-2" d="M37.75,46.05l.49.52-3.89,8.58-.61-.66L35,51.81,32.29,49l-2.75,1-.63-.67Zm-2.44,5.16L37.26,47,32.9,48.63Z"/><path class="cls-2" d="M35.21,56.07l6.36-5.94.58.63-5.8,5.42,3.43,3.67-.56.52Z"/><line class="cls-1" x1="52.85" y1="60.73" x2="10.58" y2="16.21"/></svg>